<svg xmlns="http://www.w3.org/2000/svg" version="1.1" viewBox="-5.0 -10.0 110.0 135.0">
 <path d="m70.832 77.777h22.223v11.109c0 3.0547-2.5 5.5547-5.5547 5.5547h-11.109c-3.0664 0-5.5547-2.4883-5.5547-5.5547v-11.109zm16.668-72.223h-11.109c-3.0664 0-5.5547 2.4883-5.5547 5.5547v61.109h22.223l-0.003906-61.109c0-3.0547-2.5-5.5547-5.5547-5.5547zm-27.777 0h-8.332c-2.918 0-5.4727 1.5-7 3.7773-1-0.85938-2.2227-1.4727-3.582-1.7773l-8.1094-1.8047c-4.5-0.97266-8.9453 1.8594-9.9453 6.332l-12.613 56.891 5.418 1.1953 13.555 3 5.418 1.1953 8.5273-38.445v36.305h22.223l-0.003906-61.113c0-3.0703-2.4883-5.5547-5.5547-5.5547zm-16.668 83.336c0 3.0547 2.5 5.5547 5.5547 5.5547h11.109c3.0703 0 5.5547-2.4883 5.5547-5.5547v-11.109h-22.223v11.109zm-28.691-13.309-5.418-1.1953-1.8047 8.1094c-0.47266 2.168-0.082031 4.418 1.1094 6.2773 1.1953 1.8906 3.0547 3.1953 5.2227 3.668l8.1094 1.8047c0.60938 0.14062 1.2227 0.19531 1.8047 0.19531 3.832 0 7.2773-2.6406 8.1406-6.5273l1.8047-8.1094-5.418-1.1953-13.555-3.0273z"/>
</svg>